<?xml version="1.0" ?><!-- Uploaded to: SVG Repo, www.svgrepo.com, Generator: SVG Repo Mixer Tools -->
<svg width="800px" height="800px" viewBox="0 0 32 32" data-name="Layer 1" id="Layer_1" xmlns="http://www.w3.org/2000/svg"><defs><style>.cls-1{fill:#4d4d4d;}</style></defs><title/><path class="cls-1" d="M28,6H4A2,2,0,0,0,2,8V24a2,2,0,0,0,2,2H28a2,2,0,0,0,2-2V8A2,2,0,0,0,28,6Zm0,18H4V8H28Z"/><path class="cls-1" d="M18,14h7a1,1,0,0,0,0-2H18a1,1,0,0,0,0,2Z"/><path class="cls-1" d="M18,18h4a1,1,0,0,0,0-2H18a1,1,0,0,0,0,2Z"/><path class="cls-1" d="M7,21a1,1,0,0,0,1-1c0-.28.88-.89,1.28-1l.11,0a2.3,2.3,0,0,0,1.1-.58,2.2,2.2,0,0,0,1,0,2.3,2.3,0,0,0,1.1.58l.07,0c.43.16,1.28.77,1.32,1.05a1,1,0,0,0,2,0c0-1.77-2.37-2.86-2.72-3h0A5,5,0,0,0,14,14a3.16,3.16,0,0,0-3-3,3.16,3.16,0,0,0-3,3,5,5,0,0,0,.74,3h0C8.37,17.14,6,18.23,6,20A1,1,0,0,0,7,21Zm4-8a1.17,1.17,0,0,1,1,1,2.69,2.69,0,0,1-.71,2.29.41.41,0,0,1-.58,0A2.68,2.68,0,0,1,10,14,1.17,1.17,0,0,1,11,13Z"/></svg>