<svg version="1.1" id="Layer_1" xmlns="http://www.w3.org/2000/svg" xmlns:xlink="http://www.w3.org/1999/xlink" x="0px" y="0px" viewBox="0 0 121.7313 258.8563" enable-background="new 0 0 121.7313 258.8563" xml:space="preserve">
<g>
<path d="M20.1616,64.6804l11.2877,4.9235c1.0082,0.4398,2.193-0.0253,2.6328-1.0336l3.2346-7.4158
		c-0.3458-0.6776-0.6609-1.3727-0.9444-2.0844l-2.5981,5.9565l-11.8394-5.1642l8.7957-20.1652l5.2033,2.2696
		c0.5555-1.635,1.2747-3.1942,2.1425-4.6568l-5.0209-2.19c-1.0082-0.4398-2.193,0.0253-2.6328,1.0336L19.128,62.0476
		C18.6882,63.0558,19.1534,64.2406,20.1616,64.6804z" id="id_101" style="fill: rgb(21, 84, 97);"></path>
<path d="M35.6207,129.5535v18.9395v98c0,6.8301,5.5371,12.3633,12.3653,12.3633c6.8261,0,12.3632-5.5332,12.3632-12.3633v-90.2715
		h4.6348v90.2715c0,6.8301,5.537,12.3633,12.3652,12.3633c6.8262,0,12.3633-5.5332,12.3633-12.3633v-98v-18.9395V92.6902
		c0.0144,0.0083,0.03,0.0173,0.0443,0.0256c2.6727,1.5419,5.2576,3.0298,7.7369,4.3196c4.6229,2.405,8.8721,4.1097,12.5932,4.11
		c2.8018,0.0005,5.3047-0.9629,7.4492-3.3149c5.5898-6.1323,0.8682-15.3745-1.4004-19.8164
		c-3.1797-6.2245-8.438-14.6061-16.0161-25.5234c-0.0093-0.0356-0.0107-0.0714-0.022-0.1069
		C96.5166,40.936,87.8535,38.5048,83.7539,38.811c-1.376,0.105-2.4072,1.3062-2.3027,2.6826
		c0.1045,1.3706,1.3154,2.395,2.6631,2.3042c0.2734-0.0175,4.4214-0.1597,7.896,3.8393c-4.4946,1.8431-10.0024,6.9131-8.2632,9.3702
		C90.874,67.081,95.5176,74.2455,98.543,79.3124c-0.2764-0.1592-0.541-0.312-0.791-0.4556
		c-2.0056-1.1572-3.7642-2.1629-5.3476-3.0229c-4.3842-2.381-7.3888-3.6138-10.293-3.6138c-0.5276,0-1.0423,0.0543-1.5414,0.1517
		H69.9432c-3.1976,1.5055-6.7645,2.3516-10.5266,2.3516s-7.329-0.8461-10.5266-2.3516h-5.5409c-0.327,0-0.647,0.0269-0.9633,0.0663
		c-0.6589,0.0535-1.3212,0.1802-1.9746,0.4064l-18.0137,6.2393l3.9091-9.214l-7.0649-3.0817
		c-2.1733-0.9479-3.1701-3.4869-2.2221-5.6603l7.768-17.8091c-2.8446,0.2566-5.4588,2.0303-6.6522,4.8436l-17.5,41.25
		c-1.2349,2.9111-0.6392,6.2759,1.5195,8.5864c1.5396,1.6475,3.668,2.5386,5.8467,2.5386c0.876,0,1.7598-0.144,2.6167-0.4409
		l25.0024-8.6599V129.5535z" id="id_102" style="fill: rgb(34, 155, 179);"></path>
<path d="M36.9166,49.9237c0,12.4267,10.0723,22.5,22.5,22.5c10.4004,0,19.1489-7.0588,21.7261-16.646
		c0.013-0.4158,0.0621-0.8385,0.1874-1.2695c0.056-0.1924,0.1459-0.3878,0.2244-0.5822c0.2335-1.2996,0.3621-2.6356,0.3621-4.0023
		c0-1.5515-0.1572-3.0662-0.4562-4.5293c-1.2808-0.7828-2.1816-2.1423-2.3022-3.7265c-0.0535-0.7021,0.0568-1.3765,0.2838-1.9985
		c-3.7298-7.2688-11.2942-12.2457-20.0254-12.2457C46.9889,27.4237,36.9166,37.4969,36.9166,49.9237z M63.9632,44.0118
		c2.3127,0,4.1875,1.8748,4.1875,4.1875s-1.8748,4.1875-4.1875,4.1875c-2.3127,0-4.1875-1.8748-4.1875-4.1875
		S61.6505,44.0118,63.9632,44.0118z M53.1507,43.7201c0,1.933-1.567,3.5-3.5,3.5s-3.5-1.567-3.5-3.5c0-1.933,1.567-3.5,3.5-3.5
		S53.1507,41.7871,53.1507,43.7201z" id="id_103" style="fill: rgb(23, 159, 189);"></path>
<path d="M86.5331,35.8321c-0.0344-0.0725-0.8713-1.7809-2.6747-2.3708c-1.1682-0.3818-2.4431-0.2106-3.7891,0.5089
		c-0.3139,0.168-0.4318,0.5575-0.264,0.8711c0.1671,0.3132,0.5547,0.4325,0.8705,0.2642c1.0202-0.5457,1.9525-0.6881,2.7715-0.4243
		c1.2784,0.4124,1.9205,1.697,1.9264,1.71c0.0262,0.0533,0.0651,0.095,0.1027,0.1375c0.2773,0.0202,0.5607,0.0561,0.8447,0.0929
		C86.5685,36.4426,86.6697,36.1169,86.5331,35.8321z" id="id_104" style="fill: rgb(20, 133, 158);"></path>
<path d="M84.5691,30.316c-1.7451-0.4836-3.6262-0.1453-5.5885,1.0024c-0.3069,0.1798-0.41,0.5738-0.2306,0.8806
		c0.1801,0.3069,0.5765,0.4058,0.8806,0.2307c1.6482-0.9653,3.1887-1.2583,4.5829-0.8767c2.1291,0.5833,3.2549,2.576,3.266,2.5961
		c0.1543,0.2791,0.4861,0.3988,0.7775,0.2955c0.0326-0.0115,0.0648-0.026,0.0961-0.0431c0.3107-0.1711,0.4247-0.5606,0.2545-0.8716
		C88.5524,33.4286,87.2258,31.0517,84.5691,30.316z" id="id_105" style="fill: rgb(11, 119, 143);"></path>
<path d="M94.4476,20.5028c-0.306,1.2793,0.3015,2.4571,1.7835,2.8116c1.4464,0.3459,2.5463-0.5292,2.8284-1.7086
		c0.2978-1.2451-0.3521-2.3968-1.8341-2.7513C95.9132,18.5407,94.7212,19.3591,94.4476,20.5028z" id="id_106" style="fill: rgb(240, 29, 50);"></path>
<path d="M99.5751,15.43c0.5474-2.2888,1.0234-2.6384,3.3477-3.5769c2.9102-1.1546,4.2963-2.639,4.8919-5.1291
		c0.5556-2.3231-0.3313-5.3112-4.7405-6.3658c-2.1217-0.5074-4.5978-0.4234-6.105-0.0729l-1.087,4.5447l3.2009,1.0508l0.4832-2.0203
		c0.1209-0.5054,0.2444-0.725,0.6724-0.7283c0.5036-0.0229,1.1104,0.1223,1.783,0.2831c1.3464,0.322,2.2289,1.2456,1.8585,2.7947
		c-0.4669,1.9519-1.7389,2.3601-3.4442,3.0905c-2.3735,0.9991-3.5573,1.7833-3.9658,4.5325l-0.3685,2.5822l3.0627,0.7325
		L99.5751,15.43z" id="id_107" style="fill: rgb(212, 21, 40);"></path>
<path d="M108.2162,23.7959c-0.306,1.2794,0.3015,2.4572,1.7835,2.8116c1.4464,0.346,2.5463-0.5292,2.8284-1.7085
		c0.2978-1.2451-0.3521-2.3968-1.8341-2.7513C109.6818,21.8339,108.4897,22.6523,108.2162,23.7959z" id="id_108" style="fill: rgb(235, 23, 44);"></path>
<path d="M110.7377,3.5784l-1.087,4.5448l3.2009,1.0508l0.4832-2.0203c0.1209-0.5054,0.2444-0.725,0.6724-0.7283
		c0.5036-0.0229,1.1104,0.1222,1.783,0.2831c1.3464,0.322,2.229,1.2456,1.8585,2.7947c-0.4669,1.9519-1.7389,2.3601-3.4442,3.0904
		c-2.3735,0.9992-3.5573,1.7833-3.9658,4.5325l-0.3685,2.5822l3.0627,0.7325l0.4108-1.7176
		c0.5474-2.2889,1.0234-2.6384,3.3477-3.5769c2.9102-1.1546,4.2963-2.639,4.8919-5.1292c0.5556-2.3231-0.3313-5.3112-4.7404-6.3658
		C114.7211,3.1439,112.245,3.2279,110.7377,3.5784z" id="id_109" style="fill: rgb(224, 32, 51);"></path>
</g>
</svg>